#!OML:ASF H:\Martial Arts Walks\Project 1\Capture day 1\Session 1\male.ASF
:FULLY-SPECIFIED
:DEGREES
3089
root 6.8556 14.7069 -26.1523 -355.074 -47.127 -358.081
lowerback 15.0941 6.86616 -12.0357
upperback -0.18372 6.75192 -1.58826
thorax -9.91531 3.72401 3.34467
lowerneck 6.36556 -15.8934 -14.3627
upperneck -1.74493 -22.3213 18.649
head 2.21935 -11.4569 7.13836
rclavicle -1.45113e-014 -4.77083e-015
rhumerus 29.6266 -14.1966 -38.074
rradius 18.5645
rwrist 30.8908
rhand -28.5621 -58.0455
rfingers 7.12502
rthumb -1.92878 991.983
lclavicle -1.45113e-014 -4.77083e-015
lhumerus -251.114 197.668 -77.032
lradius 106.421
lwrist 69.7177
lhand -16.3758 779.884
lfingers 7.12502
lthumb 9.83758 449.634
rfemur -12.9152 -7.5465 26.4967
rtibia 76.115
rfoot -15.1491 -30.1424
rtoes 25.0729
lfemur -51.3694 -8.95666 -18.373
ltibia 70.7116
lfoot -26.9268 5.27087
ltoes -8.641
3090
root 6.81177 14.7701 -26.1404 -355.844 -48.5489 -358.014
lowerback 16.0044 7.19532 -12.5289
upperback 0.148658 6.9588 -1.60499
thorax -10.1505 3.8268 3.46374
lowerneck 6.16883 -15.7176 -14.1591
upperneck -1.95401 -22.0271 18.7759
head 2.13533 -11.3112 7.17419
rclavicle 2.88238e-014 -1.11319e-014
rhumerus 30.4764 -13.6812 -38.6557
rradius 18.6201
rwrist 30.7305
rhand -28.2632 -58.2658
rfingers 7.12502
rthumb -1.64007 991.761
lclavicle 2.88238e-014 -1.11319e-014
lhumerus -251.008 198.245 -76.7729
lradius 106.444
lwrist 69.6253
lhand -16.6583 780.59
lfingers 7.12502
lthumb 9.56502 269.647
rfemur -14.8049 -8.26161 25.9043
rtibia 79.3868
rfoot -15.3126 -29.3572
rtoes 24.4256
lfemur -49.6652 -8.13726 -18.4182
ltibia 69.986
lfoot -26.9297 6.01275
ltoes -8.98823
3091
root 6.77095 14.8347 -26.1274 -356.596 -49.9339 -357.932
lowerback 16.8984 7.46357 -13.0905
upperback 0.436106 7.07228 -1.51905
thorax -10.4317 3.89547 3.75439
lowerneck 6.1527 -15.3986 -14.1157
upperneck -2.19774 -21.5575 18.8
head 1.9888 -11.0841 7.23846
rclavicle 5.48646e-014 -3.89618e-014
rhumerus 31.4195 -12.7566 -39.043
rradius 18.7889
rwrist 30.2465
rhand -28.0681 -57.7332
rfingers 7.12502
rthumb -1.45172 992.292
lclavicle 5.48646e-014 -3.89618e-014
lhumerus -250.934 198.511 -76.3958
lradius 106.439
lwrist 69.3052
lhand -17.1194 782.197
lfingers 7.12502
lthumb 9.1201 268.02
rfemur -16.9599 -9.3555 25.3154
rtibia 82.5917
rfoot -14.9555 -29.0113
rtoes 23.9611
lfemur -47.9861 -7.39504 -18.4567
ltibia 69.1953
lfoot -26.8331 6.76829
ltoes -9.31353
3092
root 6.72941 14.8986 -26.1122 -357.402 -51.3968 -357.81
lowerback 17.7568 7.75725 -13.5422
upperback 0.773905 7.22676 -1.52867
thorax -10.6128 3.96689 3.87369
lowerneck 5.85975 -15.2161 -13.9088
upperneck -2.28564 -21.2569 18.8563
head 1.94622 -10.9272 7.23889
rclavicle -5.78463e-014 3.97569e-014
rhumerus 32.5786 -12.3838 -39.9373
rradius 18.7791
rwrist 30.2719
rhand -27.8431 -57.8364
rfingers 7.12502
rthumb -1.23436 992.187
lclavicle -5.78463e-014 3.97569e-014
lhumerus -250.678 199.032 -76.261
lradius 106.361
lwrist 68.9482
lhand -17.6066 785.202
lfingers 7.12502
lthumb 8.65002 264.995
rfemur -19.3104 -10.4407 24.7842
rtibia 85.7344
rfoot -14.8784 -28.968
rtoes 23.5459
lfemur -46.2345 -6.58362 -18.5333
ltibia 68.3645
lfoot -26.6889 7.58414
ltoes -9.78671
3093
root 6.68352 14.9675 -26.0952 -358.331 -53.0266 -357.654
lowerback 18.5935 8.14486 -14.1133
upperback 1.15078 7.48119 -1.47066
thorax -10.7779 4.08799 4.09999
lowerneck 5.57917 -15.0021 -13.7324
upperneck -2.41691 -20.9081 18.8337
head 1.8757 -10.7459 7.22822
rclavicle 1.53263e-013 -7.07673e-014
rhumerus 33.766 -12.0609 -40.7707
rradius 18.7625
rwrist 30.342
rhand -27.9304 -57.0579
rfingers 7.12502
rthumb -1.31874 992.966
lclavicle 1.53263e-013 -7.07673e-014
lhumerus -250.366 199.468 -76.0559
lradius 106.25
lwrist 68.5856
lhand -17.966 787.277
lfingers 7.12502
lthumb 8.30318 262.907
rfemur -21.708 -11.4133 24.3323
rtibia 88.7246
rfoot -14.4418 -29.3318
rtoes 22.752
lfemur -44.3018 -5.69562 -18.591
ltibia 67.492
lfoot -26.6368 8.20686
ltoes -9.76429
